<?xml version="1.0" encoding="UTF-8"?>
<!DOCTYPE svg PUBLIC "-//W3C//DTD SVG 1.1//EN" "http://www.w3.org/Graphics/SVG/1.1/DTD/svg11.dtd">
<!-- Creator: CorelDRAW 2017 -->
<svg xmlns="http://www.w3.org/2000/svg" xml:space="preserve" width="37.2738mm" height="79.7859mm" version="1.1" style="shape-rendering:geometricPrecision; text-rendering:geometricPrecision; image-rendering:optimizeQuality; fill-rule:evenodd; clip-rule:evenodd"
viewBox="0 0 3728.76 7981.55"
 xmlns:xlink="http://www.w3.org/1999/xlink">
 <defs>
  <style type="text/css">
   <![CDATA[
    .fil0 {fill:#FEFEFE}
   ]]>
  </style>
 </defs>
 <g id="Слой_x0020_1">
  <metadata id="CorelCorpID_0Corel-Layer"/>
  <path class="fil0" d="M824.06 5977.86c0,-624.85 -2.4,-1249.68 2.26,-1874.43 0.85,-105.31 -28.94,-138.27 -134.28,-133.96 -194.7,7.9 -389.93,-0.82 -584.88,3.66 -78.95,2.01 -108.03,-19.87 -107.14,-103.47 3.91,-389.82 3.52,-779.89 0.38,-1169.82 -0.7,-74.99 21.89,-99.66 97.73,-97.97 199.32,4.59 399.07,-5.57 598.04,4.27 115.32,5.64 139.18,-35.32 136.78,-142.33 -6.95,-296.69 -6.95,-593.84 -0.46,-890.56 7.94,-362.4 105.21,-700.77 321.08,-995.45 273.15,-373.17 661.52,-543.76 1109.58,-563.74 460.16,-20.43 921.48,-9.1 1382.2,-14.05 64.22,-0.74 83.39,22.2 83.11,84.66 -2.05,394.31 -2.47,788.75 0.28,1183.06 0.64,70.16 -22.27,91.61 -91.12,90.52 -221.59,-3.46 -443.21,-1.77 -664.67,-1.17 -294.93,0.92 -471.44,152.64 -489.94,444.56 -14.83,234.05 -3.99,469.5 -9.42,704.23 -2.01,83.63 47.68,77.88 103.02,77.81 336.7,-0.49 673.56,3.35 1010.26,-2.4 98.86,-1.72 131.46,21.04 120.16,125.08 -42.38,391.8 -78.8,784.34 -112.36,1177.09 -7.66,88.62 -48.1,105.52 -127.72,104.18 -265.64,-4.09 -531.55,-2.82 -797.44,-1.13 -190.92,1.13 -172.39,-27.95 -172.39,166.75 -0.88,1223 -2.54,2446.05 2.72,3669.01 0.53,129.17 -32.47,161.21 -160.26,158.96 -456.31,-8.41 -912.87,-8.82 -1369.18,0.21 -128.6,2.54 -149.78,-41.09 -148.76,-155.78 4.87,-615.92 2.4,-1231.83 2.4,-1847.79z"/>
 </g>
</svg>
