<?xml version="1.0" encoding="UTF-8"?>
<!DOCTYPE svg PUBLIC "-//W3C//DTD SVG 1.1//EN" "http://www.w3.org/Graphics/SVG/1.1/DTD/svg11.dtd">
<!-- Creator: CorelDRAW 2017 -->
<svg xmlns="http://www.w3.org/2000/svg" xml:space="preserve" width="27.8694mm" height="27.8694mm" version="1.1" style="shape-rendering:geometricPrecision; text-rendering:geometricPrecision; image-rendering:optimizeQuality; fill-rule:evenodd; clip-rule:evenodd"
viewBox="0 0 337.68 337.68"
 xmlns:xlink="http://www.w3.org/1999/xlink">
 <defs>
  <style type="text/css">
   <![CDATA[
    .fil0 {fill:#FEFEFE;fill-rule:nonzero}
   ]]>
  </style>
 </defs>
 <g id="Слой_x0020_1">
  <metadata id="CorelCorpID_0Corel-Layer"/>
  <path class="fil0" d="M306.02 316.58l-274.35 0c-5.83,0 -10.57,-4.74 -10.57,-10.56l0 -162.83 55.86 0c-2.3,8.19 -3.66,16.77 -3.66,25.66 0,52.69 42.87,95.53 95.56,95.53 52.68,0 95.53,-42.84 95.53,-95.53 0,-8.92 -1.37,-17.47 -3.66,-25.66l55.86 0 0 162.83c0,5.82 -4.74,10.56 -10.57,10.56l0 0zm-137.16 -222.19c41.04,0 74.43,33.39 74.43,74.46 0,41.04 -33.4,74.43 -74.43,74.43 -41.07,0 -74.46,-33.39 -74.46,-74.43 0,-41.07 33.4,-74.46 74.46,-74.46l0 0zm61.98 -42.77c0,-11.59 9.51,-21.1 21.1,-21.1l26.38 0c11.62,0 21.1,9.51 21.1,21.1l0 31.95c0,11.62 -9.48,21.13 -21.1,21.13l-26.38 0c-11.59,0 -21.1,-9.51 -21.1,-21.13l0 -31.95zm75.17 -51.63l-274.35 0c-17.47,0 -31.66,14.19 -31.66,31.67l0 274.35c0,17.47 14.19,31.66 31.66,31.66l274.35 0c17.47,0 31.67,-14.19 31.67,-31.66l0 -274.35c0,-17.47 -14.19,-31.67 -31.67,-31.67l0 0z"/>
 </g>
</svg>
