<?xml version="1.0" encoding="UTF-8"?>
<!DOCTYPE svg PUBLIC "-//W3C//DTD SVG 1.1//EN" "http://www.w3.org/Graphics/SVG/1.1/DTD/svg11.dtd">
<!-- Creator: CorelDRAW 2017 -->
<svg xmlns="http://www.w3.org/2000/svg" xml:space="preserve" width="42.9588mm" height="55.219mm" version="1.1" style="shape-rendering:geometricPrecision; text-rendering:geometricPrecision; image-rendering:optimizeQuality; fill-rule:evenodd; clip-rule:evenodd"
viewBox="0 0 4324.21 5558.31"
 xmlns:xlink="http://www.w3.org/1999/xlink">
 <defs>
  <style type="text/css">
   <![CDATA[
    .fil0 {fill:#FEFEFE;fill-rule:nonzero}
   ]]>
  </style>
 </defs>
 <g id="Слой_x0020_1">
  <metadata id="CorelCorpID_0Corel-Layer"/>
  <path class="fil0" d="M1777.52 3676.26c-145.96,765.21 -324.21,1498.86 -852.25,1882.05 -163,-1156.57 239.34,-2025.2 426.12,-2947.36 -318.54,-536.21 38.34,-1615.37 710.22,-1349.4 826.68,327.01 -715.91,1993.52 319.62,2201.65 1081.26,217.27 1522.65,-1876.02 852.25,-2556.76 -968.76,-982.93 -2819.93,-22.41 -2592.3,1384.91 55.38,344.09 410.85,448.46 142.04,923.27 -620.02,-137.46 -805.03,-626.44 -781.23,-1278.37 38.34,-1067.12 958.78,-1814.22 1882.05,-1917.56 1167.59,-130.68 2263.41,428.61 2414.75,1526.94 170.39,1239.67 -527.04,2582.28 -1775.52,2485.73 -338.45,-26.29 -480.49,-193.92 -745.76,-355.11z"/>
 </g>
</svg>
